<svg version="1.1" xmlns="http://www.w3.org/2000/svg" xmlns:xlink="http://www.w3.org/1999/xlink" width="45" height="45" viewBox="0,0,45,45"><defs><radialGradient cx="247.7275" cy="171.1396" r="38.5299" gradientUnits="userSpaceOnUse" id="color-1"><stop offset="0" stop-color="#ffff99"/><stop offset="1" stop-color="#ff9400"/></radialGradient></defs><g transform="translate(-218,-158)"><g data-paper-data="{&quot;isPaintingLayer&quot;:true}" fill-rule="nonzero" stroke="none" stroke-linecap="butt" stroke-linejoin="miter" stroke-miterlimit="10" stroke-dasharray="" stroke-dashoffset="0" style="mix-blend-mode: normal"><path d="M218,180.5c0,-12.4264 10.0736,-22.5 22.5,-22.5c12.4264,0 22.5,10.0736 22.5,22.5c0,12.4264 -10.0736,22.5 -22.5,22.5c-12.4264,0 -22.5,-10.0736 -22.5,-22.5z" fill="url(#color-1)" stroke-width="1"/><path d="M235.10799,169.36835c-1.25,0 -1.25,-1.25 -1.25,-1.25v-0.39941c0.03038,-2.25446 -2.0109,-3.25795 -3.73564,-1.25441c-0.48672,0.56539 -0.27474,1.46763 -0.36425,2.20828c0,0 -0.15505,1.24035 -1.39539,1.08531c-1.24034,-0.15505 -1.08531,-1.39539 -1.08531,-1.39539c0.11837,-0.92072 0.20353,-2.59398 0.83397,-3.38344c3.11333,-3.89867 8.20037,-1.83955 8.24661,2.73967v0.39941c0,0 0,1.25 -1.25,1.25z" fill="#000000" stroke-width="0.5"/><path d="M248.84748,168.83697c-1.11803,0.55901 -1.67705,-0.55902 -1.67705,-0.55902l-0.33168,-0.95843c0.07728,-1.49228 -1.08499,-3.19725 -2.86484,-2.63953c-0.69452,0.21763 -0.96172,2.73707 -1.06301,3.1424c0,0 -0.30317,1.21268 -1.51585,0.90951c-1.21268,-0.30317 -0.90951,-1.51585 -0.90951,-1.51585c0.4421,-1.76762 0.57962,-3.96275 2.53167,-4.84576c3.49376,-1.58041 6.23139,1.99056 6.32154,4.94923l0.06774,-0.1596c0,0 0.55902,1.11804 -0.55902,1.67705z" fill="#000000" stroke-width="0.5"/><path d="M234.16046,173.01402l0.27177,-0.20403l-0.10063,-0.0805l0.17337,-0.21671c-0.63917,-0.22304 -1.43774,-0.19964 -2.32592,0.16041c-0.66232,0.26849 -1.43425,0.52986 -1.82185,1.13028c-0.75579,1.17076 -0.53945,3.65415 0.80089,3.83468l0.35522,-0.18548c0.23821,0.00235 0.47642,0.0047 0.71463,0.00705c0.07755,-0.00567 0.16793,-0.00679 0.26465,0.00261c0.08176,0.00081 0.16351,0.00161 0.24527,0.00242c0.22708,-0.06653 0.82084,-0.1337 1.41583,-0.24187c-0.37514,-1.39256 -0.27082,-2.53433 0.00677,-4.20885zM232.45542,179.94542c-0.19875,0.03667 -0.39313,0.06081 -0.58288,0.07317c-0.30925,0.1669 -0.80147,0.29797 -1.3085,-0.11121c-2.90018,-0.72148 -4.16287,-4.52417 -2.28809,-7.48896c0.90278,-1.42766 3.31613,-2.35465 4.88198,-2.54516c4.33238,-0.5271 6.86529,4.52038 4.59973,8.10655c-1.02312,1.61952 -3.06097,1.51053 -4.67303,1.96076c-0.20973,0.00161 -0.41947,0.00323 -0.62921,0.00484z" fill="#000000" stroke-width="0.5"/><path d="M234.18659,177.26053c-0.59499,0.10817 -1.21125,0.1866 -1.43833,0.25313c-0.08176,-0.00081 -0.16829,-0.00084 -0.25005,-0.00164c-0.09671,-0.0094 -0.19245,-0.00797 -0.27,-0.0023c-0.23821,-0.00235 -0.49045,-0.00663 -0.72866,-0.00898l-0.36006,0.18382c-1.34034,-0.18053 -1.58007,-2.73746 -0.82428,-3.90822c0.38761,-0.60042 1.20077,-0.88465 1.86309,-1.15314c0.88817,-0.36005 1.72135,-0.37026 2.36052,-0.14722l-0.17315,0.21692l0.1021,0.08194l-0.27236,0.20345c-0.27758,1.67452 -0.38397,2.88969 -0.00883,4.28225z" data-paper-data="{&quot;noHover&quot;:false,&quot;origItem&quot;:[&quot;Path&quot;,{&quot;applyMatrix&quot;:true,&quot;segments&quot;:[[[468.32091,346.02804],[-0.55517,3.34903],[0,0]],[468.86446,345.61997],[468.66321,345.45897],[[469.00995,345.02555],[0,0],[-1.27835,-0.44607]],[[464.35812,345.34637],[1.77635,-0.72009],[-1.32463,0.53698]],[[460.71441,347.60693],[0.77521,-1.20084],[-1.51158,2.34152]],[[462.3162,355.27629],[-2.68068,-0.36107],[0,0]],[[463.02663,354.90533],[0,0],[0.47642,0.0047]],[[464.45589,354.91943],[-0.47642,-0.0047],[0.1551,-0.01135]],[[464.98519,354.92465],[-0.19343,-0.01881],[0.16352,0.00161]],[[465.47573,354.92949],[-0.16352,-0.00161],[0.45415,-0.13306]],[[468.30738,354.44574],[-1.18997,0.21634],[-0.75028,-2.78513]]],&quot;closed&quot;:true}]}" fill="#ffffff" stroke-width="0.5"/><path d="M245.24618,172.79899l0.1726,-0.24519l-0.11351,-0.03783l0.18407,-0.55222c-0.85831,-0.12321 -1.76947,0.03045 -2.47186,0.59566c-0.44219,0.35584 -0.01412,1.14461 0.1052,1.69951c0.36313,1.6889 1.04834,2.36307 2.21044,2.507c0.13116,-0.26433 0.35559,-0.43586 0.52715,-0.53543c-0.20512,-1.14192 -0.46654,-2.25517 -0.6141,-3.4315zM248.72708,177.72707c0.17677,1.23744 -1.06066,1.41422 -1.06066,1.41422c-2.01289,0.27454 -4.07521,0.40107 -5.67803,-1.17724c-2.3966,-2.35995 -2.10892,-6.96966 1.16968,-8.05372c5.5189,-1.8248 9.64938,3.69488 5.59884,7.66966c-0.01316,0.02367 -0.02728,0.04726 -0.04241,0.07061c0.00466,0.02487 0.00886,0.05036 0.01259,0.07647z" fill="#000000" stroke-width="0.5"/><path d="M245.89164,176.26942c-0.17156,0.09957 -0.4084,0.27843 -0.53956,0.54276c-1.1621,-0.14393 -1.91615,-0.8679 -2.27928,-2.55679c-0.11931,-0.5549 -0.52729,-1.38032 -0.08509,-1.73615c0.70238,-0.56521 1.66504,-0.72373 2.52335,-0.60053l-0.18247,0.55302l0.11597,0.03922l-0.17311,0.24488c0.14756,1.17633 0.41508,2.37166 0.6202,3.51359z" data-paper-data="{&quot;noHover&quot;:false,&quot;origItem&quot;:[&quot;Path&quot;,{&quot;applyMatrix&quot;:true,&quot;segments&quot;:[[[490.49235,345.59797],[0.29512,2.35266],[0,0]],[490.83755,345.10758],[490.61054,345.03192],[[490.97868,343.92749],[0,0],[-1.71661,-0.24641]],[[486.03497,345.11881],[1.40476,-1.13043],[-0.88439,0.71167]],[[486.24536,348.51783],[-0.23862,-1.10981],[0.72626,3.37779]],[[490.66624,353.53183],[-2.32421,-0.28787],[0.26232,-0.52867]],[[491.72054,352.46097],[-0.34311,0.19915],[-0.41023,-2.28385]]],&quot;closed&quot;:true}]}" fill="#ffffff" stroke-width="0.5"/><path d="M241.67769,185.13745c0.17454,-0.26382 0.48099,-0.49544 1.01905,-0.49544c1.25,0 1.25,1.25 1.25,1.25l-0.69098,1.31774c-1.29761,0.6158 -1.96575,1.19981 -3.56893,0.66061c-2.35532,-0.79217 -3.50041,-4.82456 -1.66835,-6.65661c0.93188,-0.93188 2.34681,-0.75408 3.48004,-0.76552c0,0 1.25,0 1.25,1.25c0,1.25 -1.25,1.25 -1.25,1.25c-0.57082,-0.00769 -1.30861,-0.37037 -1.71227,0.03329c-1.35448,1.35448 0.54471,2.43423 1.89144,2.15593z" fill="#000000" stroke-width="0.5"/><path d="M249.57176,195.76258c-0.88388,0.88388 -1.76777,0 -1.76777,0l-0.6958,-0.70661c-0.33284,-0.26627 -0.66568,-0.53255 -0.99852,-0.79882c0,0 -0.16455,-0.13164 -0.30447,-0.35438c-0.91354,0.44621 -1.88798,0.79277 -2.88711,1.02936c0.27729,0.53563 0.60692,1.01274 1.10215,1.20846c1.73433,0.68542 8.3014,0.92554 6.88307,-2.84518c-0.25171,-0.66918 -0.94755,-1.07164 -1.39418,-1.62993l-0.26587,-0.25652c-0.38495,0.41069 -0.80757,0.79295 -1.26085,1.1448c0.22918,0.18334 0.45835,0.36669 0.68753,0.55003l0.90184,0.89102c0,0 0.88388,0.88388 0,1.76777zM250.96968,189.60133l0.49161,0.50242c0.25045,0.31306 1.74031,2.14702 1.80108,2.36415c1.65626,5.91864 -6.19589,7.98279 -10.29148,5.94181c-1.68669,-0.84054 -1.83389,-1.81662 -2.58874,-3.12078c-2.08961,0.09385 -4.15566,-0.31466 -5.88247,-1.31527c-2.05433,-1.19039 -2.71262,-3.14348 -3.70499,-5.12618c0,0 -0.55902,-1.11803 0.55901,-1.67705c1.11803,-0.55901 1.67705,0.55901 1.67705,0.55901c0.73173,1.46488 1.17321,3.16819 2.68554,4.06021c4.33321,2.55587 12.6488,0.0068 13.33177,-5.27561l0.22446,-0.92521c0,0 0.30317,-1.21267 1.51585,-0.9095c1.21268,0.30317 0.90951,1.51584 0.90951,1.51584l-0.17495,0.67243c-0.13792,0.90095 -0.42549,1.74555 -0.83456,2.52584c0.1753,0.10188 0.28131,0.20789 0.28131,0.20789z" fill="#000000" stroke-width="0.5"/><path d="M249.52176,193.99447l-0.89608,-0.86739c-0.22918,-0.18334 -0.4423,-0.34868 -0.67148,-0.53202c0.45328,-0.35186 0.93691,-0.81314 1.32186,-1.22382l0.26978,0.26029c0.44663,0.55829 1.15502,0.98608 1.40673,1.65526c1.41833,3.77071 -5.23851,3.56853 -6.97284,2.88311c-0.49523,-0.19572 -0.83303,-0.69078 -1.11032,-1.22641c0.99912,-0.23659 1.97234,-0.59759 2.88589,-1.0438c0.13993,0.22274 0.40213,0.34262 0.40213,0.34262c0.33284,0.26627 0.61341,0.4976 0.94625,0.76387l0.68001,0.71072c0,0 0.86318,0.90098 1.74706,0.0171c0.88388,-0.88388 -0.00898,-1.73952 -0.00898,-1.73952z" data-paper-data="{&quot;noHover&quot;:false,&quot;origItem&quot;:[&quot;Path&quot;,{&quot;applyMatrix&quot;:true,&quot;segments&quot;:[[[499.14351,391.52516],[1.76777,-1.76777],[-1.76777,1.76777]],[495.60797,391.52516],[[494.21637,390.11194],[0,0],[-0.66568,-0.53254]],[[492.21933,388.5143],[0.66568,0.53254],[0,0]],[[491.61038,387.80554],[0.27985,0.44548],[-1.82709,0.89243]],[[485.83617,389.86426],[1.99825,-0.47319],[0.55458,1.07126]],[[488.04046,392.28118],[-0.99046,-0.39144],[3.46865,1.37084]],[[501.80661,386.59083],[2.83666,7.54143],[-0.50342,-1.33836]],[[499.01824,383.33097],[0.89326,1.11657],[0,0]],[[498.48649,382.81793],[0,0],[-0.7699,0.82137]],[[495.96478,385.10754],[0.90657,-0.70371],[0.45836,0.36668]],[[497.33984,386.20759],[-0.45836,-0.36668],[0,0]],[499.14351,387.98963]],&quot;closed&quot;:true}]}" fill="#ff0000" stroke-width="0.5"/></g></g></svg>